<svg width="23" height="22" viewBox="0 0 23 22" fill="none" xmlns="http://www.w3.org/2000/svg">
<path d="M20.1366 8.41243C20.079 8.24262 19.9729 8.09341 19.8314 7.98322C19.6899 7.87303 19.5192 7.80669 19.3405 7.79238L14.1113 7.37688L11.8485 2.36786C11.7764 2.20653 11.6592 2.0695 11.511 1.97332C11.3628 1.87714 11.1899 1.8259 11.0132 1.82581C10.8365 1.82571 10.6636 1.87675 10.5152 1.97277C10.3669 2.0688 10.2495 2.20569 10.1773 2.36694L7.91449 7.37688L2.68533 7.79238C2.50964 7.8063 2.34168 7.87054 2.20154 7.97742C2.06141 8.08429 1.95503 8.22928 1.89513 8.39503C1.83524 8.56079 1.82436 8.74028 1.86381 8.91205C1.90326 9.08383 1.99136 9.24059 2.11757 9.36361L5.98187 13.1307L4.6152 19.0487C4.5737 19.2278 4.587 19.4153 4.65337 19.5868C4.71974 19.7583 4.83612 19.9058 4.98741 20.0103C5.1387 20.1149 5.31791 20.1715 5.50178 20.1729C5.68565 20.1743 5.8657 20.1204 6.01856 20.0182L11.0129 16.6886L16.0072 20.0182C16.1635 20.1219 16.3477 20.1753 16.5352 20.1712C16.7227 20.1671 16.9045 20.1057 17.056 19.9952C17.2075 19.8847 17.3216 19.7305 17.3829 19.5532C17.4441 19.376 17.4497 19.1842 17.3987 19.0037L15.7211 13.1334L19.8816 9.38929C20.1541 9.14347 20.254 8.76007 20.1366 8.41243Z" fill="#F3CD03"/>
</svg>
